{"asset":{"version":"2.0","generator":"VECTARY"},"nodes":[{"translation":[0,0,0],"scale":[0.001,0.001,0.001],"rotation":[-0.7071067811865475,0,0,0.7071067811865476],"name":"Group"},{"translation":[-0.0004832286880067045,2.6645352591003758e-18,-0.013782887479095826],"scale":[0.00008,0.000055,0.001],"rotation":[-0.7071067811865475,0,0,0.7071067811865476],"name":"Box 1","mesh":0},{"translation":[-0.04730795453402776,0.10260133371339245,-0.007676363333302995],"scale":[0.0008365885756612017,0.001,0.0009999999999999998],"rotation":[-0.7071016451401019,0.002695077023283643,-0.0026950770232836425,0.707101645140102],"name":"3D Text - f","mesh":1},{"translation":[-0.034551166379663587,0.10250408878025354,-0.007676363333303002],"scale":[0.0008365885756612017,0.001,0.0009999999999999998],"rotation":[-0.7071016451401019,0.002695077023283643,-0.0026950770232836425,0.707101645140102],"name":"3D Text - i","mesh":2},{"translation":[-0.02502952911170877,0.10243150538635448,-0.007676363333303009],"scale":[0.0008365885756612017,0.001,0.0009999999999999998],"rotation":[-0.7071016451401019,0.002695077023283643,-0.0026950770232836425,0.707101645140102],"name":"3D Text - e","mesh":3},{"translation":[-0.003909140654411308,0.1022705047693853,-0.007676363333302995],"scale":[0.0008365885756612017,0.001,0.0009999999999999998],"rotation":[-0.7071016451401019,0.002695077023283643,-0.0026950770232836425,0.707101645140102],"name":"3D Text - l","mesh":4},{"translation":[0.005612496613543508,0.10219792137548624,-0.007676363333303002],"scale":[0.0008365885756612017,0.001,0.0009999999999999998],"rotation":[-0.7071016451401019,0.002695077023283643,-0.0026950770232836425,0.707101645140102],"name":"3D Text - d","mesh":5},{"translation":[0.028681328218337514,0.10202206778602033,-0.007676363333302995],"scale":[0.0008365885756612017,0.001,0.0009999999999999998],"rotation":[-0.7071016451401019,0.002695077023283643,-0.0026950770232836425,0.707101645140102],"name":"3D Text - s","mesh":6},{"translation":[-0.063849065014579,0.15272887924718573,-0.007676363333302987],"scale":[0.0008365885756612017,0.001,0.0009999999999999998],"rotation":[-0.7071016451401019,0.002695077023283643,-0.0026950770232836425,0.707101645140102],"name":"3D Text - J","mesh":7},{"translation":[-0.05379436311193173,0.15265223230420735,-0.007676363333302987],"scale":[0.0008365885756612017,0.001,0.0009999999999999998],"rotation":[-0.7071016451401019,0.002695077023283643,-0.0026950770232836425,0.707101645140102],"name":"3D Text - e","mesh":8},{"translation":[-0.03267397465463427,0.1524912316872382,-0.007676363333302987],"scale":[0.0008365885756612017,0.001,0.0009999999999999998],"rotation":[-0.7071016451401019,0.002695077023283643,-0.0026950770232836425,0.707101645140102],"name":"3D Text - l","mesh":9},{"translation":[-0.023152337386679447,0.15241864829333912,-0.007676363333302987],"scale":[0.0008365885756612017,0.001,0.0009999999999999998],"rotation":[-0.7071016451401019,0.002695077023283643,-0.0026950770232836425,0.707101645140102],"name":"3D Text - l","mesh":10},{"translation":[-0.013630700118724632,0.15234606489944005,-0.007676363333303002],"scale":[0.0008365885756612017,0.001,0.0009999999999999998],"rotation":[-0.7071016451401019,0.002695077023283643,-0.0026950770232836425,0.707101645140102],"name":"3D Text - y","mesh":11},{"translation":[0.0053390482606757005,0.1522014586011701,-0.007676363333302987],"scale":[0.0008365885756612017,0.001,0.0009999999999999998],"rotation":[-0.7071016451401019,0.002695077023283643,-0.0026950770232836425,0.707101645140102],"name":"3D Text - f","mesh":12},{"translation":[0.018095836415039878,0.15210421366803117,-0.007676363333302987],"scale":[0.0008365885756612017,0.001,0.0009999999999999998],"rotation":[-0.7071016451401019,0.002695077023283643,-0.0026950770232836425,0.707101645140102],"name":"3D Text - i","mesh":13},{"translation":[0.027617473682994692,0.1520316302741321,-0.007676363333302987],"scale":[0.0008365885756612017,0.001,0.0009999999999999998],"rotation":[-0.7071016451401019,0.002695077023283643,-0.0026950770232836425,0.707101645140102],"name":"3D Text - s","mesh":14},{"translation":[0.045576237410392094,0.1518947307068746,-0.007676363333302987],"scale":[0.0008365885756612017,0.001,0.0009999999999999998],"rotation":[-0.7071016451401019,0.002695077023283643,-0.0026950770232836425,0.707101645140102],"name":"3D Text - h","mesh":15},{"translation":[0,0.09644041319941735,-0.013458528551815058],"scale":[0.0015,0.0001,0.001],"rotation":[-0.7071067811865475,0,0,0.7071067811865476],"name":"Box","mesh":16}],"materials":[{"pbrMetallicRoughness":{"baseColorFactor":[0.6120655998656237,0.6120655998656237,0.6120655998656237,1],"metallicFactor":0,"roughnessFactor":0.2},"name":"Canberra","emissiveFactor":[0,0,0],"alphaMode":"OPAQUE","doubleSided":false},{"pbrMetallicRoughness":{"baseColorFactor":[1,0,0,1],"metallicFactor":0,"roughnessFactor":0.2},"name":"Vera","emissiveFactor":[0,0,0],"alphaMode":"OPAQUE","doubleSided":false},{"pbrMetallicRoughness":{"baseColorFactor":[0.7372047873606051,0.744530171266715,0.7742273142184415,1],"metallicFactor":0,"roughnessFactor":0.2},"name":"Happy Days","emissiveFactor":[0,0,0],"alphaMode":"OPAQUE","doubleSided":false}],"meshes":[{"primitives":[{"mode":4,"attributes":{"POSITION":1,"NORMAL":2},"material":0,"indices":0}]},{"primitives":[{"mode":4,"attributes":{"POSITION":4,"NORMAL":5},"material":1,"indices":3}]},{"primitives":[{"mode":4,"attributes":{"POSITION":7,"NORMAL":8},"material":1,"indices":6}]},{"primitives":[{"mode":4,"attributes":{"POSITION":10,"NORMAL":11},"material":1,"indices":9}]},{"primitives":[{"mode":4,"attributes":{"POSITION":13,"NORMAL":14},"material":1,"indices":12}]},{"primitives":[{"mode":4,"attributes":{"POSITION":16,"NORMAL":17},"material":1,"indices":15}]},{"primitives":[{"mode":4,"attributes":{"POSITION":19,"NORMAL":20},"material":1,"indices":18}]},{"primitives":[{"mode":4,"attributes":{"POSITION":22,"NORMAL":23},"material":1,"indices":21}]},{"primitives":[{"mode":4,"attributes":{"POSITION":10,"NORMAL":11},"material":1,"indices":9}]},{"primitives":[{"mode":4,"attributes":{"POSITION":13,"NORMAL":14},"material":1,"indices":12}]},{"primitives":[{"mode":4,"attributes":{"POSITION":13,"NORMAL":14},"material":1,"indices":12}]},{"primitives":[{"mode":4,"attributes":{"POSITION":25,"NORMAL":26},"material":1,"indices":24}]},{"primitives":[{"mode":4,"attributes":{"POSITION":4,"NORMAL":5},"material":1,"indices":3}]},{"primitives":[{"mode":4,"attributes":{"POSITION":7,"NORMAL":8},"material":1,"indices":6}]},{"primitives":[{"mode":4,"attributes":{"POSITION":19,"NORMAL":20},"material":1,"indices":18}]},{"primitives":[{"mode":4,"attributes":{"POSITION":28,"NORMAL":29},"material":1,"indices":27}]},{"primitives":[{"mode":4,"attributes":{"POSITION":31,"NORMAL":32},"material":2,"indices":30}]}],"accessors":[{"bufferView":0,"byteOffset":0,"componentType":5125,"count":900,"type":"SCALAR"},{"bufferView":1,"byteOffset":0,"componentType":5126,"count":152,"max":[50,50,100],"min":[-50,-50,0],"type":"VEC3"},{"bufferView":2,"byteOffset":0,"componentType":5126,"count":152,"type":"VEC3"},{"bufferView":3,"byteOffset":0,"componentType":5125,"count":372,"type":"SCALAR"},{"bufferView":4,"byteOffset":0,"componentType":5126,"count":243,"max":[19.091796875,2.342555589475914e-15,38.2568359375],"min":[0.7080078125,-15,0],"type":"VEC3"},{"bufferView":5,"byteOffset":0,"componentType":5126,"count":243,"type":"VEC3"},{"bufferView":6,"byteOffset":0,"componentType":5125,"count":408,"type":"SCALAR"},{"bufferView":7,"byteOffset":0,"componentType":5126,"count":272,"max":[8.740234375,2.2468800417099885e-15,36.6943359375],"min":[3.955078125,-15,0],"type":"VEC3"},{"bufferView":8,"byteOffset":0,"componentType":5126,"count":272,"type":"VEC3"},{"bufferView":9,"byteOffset":0,"componentType":5125,"count":768,"type":"SCALAR"},{"bufferView":10,"byteOffset":0,"componentType":5126,"count":510,"max":[25.439453125,1.6683420332960796e-15,27.24609375],"min":[2.8076171875,-15,-0.48828125],"type":"VEC3"},{"bufferView":11,"byteOffset":0,"componentType":5126,"count":510,"type":"VEC3"},{"bufferView":12,"byteOffset":0,"componentType":5125,"count":36,"type":"SCALAR"},{"bufferView":13,"byteOffset":0,"componentType":5126,"count":24,"max":[8.349609375,2.326111291837919e-15,37.98828125],"min":[4.296875,-15,0],"type":"VEC3"},{"bufferView":14,"byteOffset":0,"componentType":5126,"count":24,"type":"VEC3"},{"bufferView":15,"byteOffset":0,"componentType":5125,"count":792,"type":"SCALAR"},{"bufferView":16,"byteOffset":0,"componentType":5126,"count":530,"max":[26.3427734375,2.326111291837919e-15,37.98828125],"min":[2.8076171875,-15,-0.48828125],"type":"VEC3"},{"bufferView":17,"byteOffset":0,"componentType":5126,"count":530,"type":"VEC3"},{"bufferView":18,"byteOffset":0,"componentType":5125,"count":1116,"type":"SCALAR"},{"bufferView":19,"byteOffset":0,"componentType":5126,"count":746,"max":[21.5576171875,1.6683420332960796e-15,27.24609375],"min":[2.587890625,-15,-0.48828125],"type":"VEC3"},{"bufferView":20,"byteOffset":0,"componentType":5126,"count":746,"type":"VEC3"},{"bufferView":21,"byteOffset":0,"componentType":5125,"count":324,"type":"SCALAR"},{"bufferView":22,"byteOffset":0,"componentType":5126,"count":220,"max":[8.7890625,2.18558789061372e-15,35.693359375],"min":[-3.90625,-15,-9.3994140625],"type":"VEC3"},{"bufferView":23,"byteOffset":0,"componentType":5126,"count":220,"type":"VEC3"},{"bufferView":24,"byteOffset":0,"componentType":5125,"count":468,"type":"SCALAR"},{"bufferView":25,"byteOffset":0,"componentType":5126,"count":314,"max":[25.146484375,1.6384434643238973e-15,26.7578125],"min":[0.048828125,-15,-12.01171875],"type":"VEC3"},{"bufferView":26,"byteOffset":0,"componentType":5126,"count":314,"type":"VEC3"},{"bufferView":27,"byteOffset":0,"componentType":5125,"count":528,"type":"SCALAR"},{"bufferView":28,"byteOffset":0,"componentType":5126,"count":354,"max":[26.66015625,2.326111291837919e-15,37.98828125],"min":[4.296875,-15,0],"type":"VEC3"},{"bufferView":29,"byteOffset":0,"componentType":5126,"count":354,"type":"VEC3"},{"bufferView":30,"byteOffset":0,"componentType":5125,"count":900,"type":"SCALAR"},{"bufferView":31,"byteOffset":0,"componentType":5126,"count":152,"max":[50,50,100],"min":[-50,-50,0],"type":"VEC3"},{"bufferView":32,"byteOffset":0,"componentType":5126,"count":152,"type":"VEC3"}],"bufferViews":[{"buffer":0,"byteOffset":0,"byteLength":3600,"target":34963},{"buffer":0,"byteOffset":3600,"byteLength":1824,"target":34962},{"buffer":0,"byteOffset":5424,"byteLength":1824,"target":34962},{"buffer":0,"byteOffset":7248,"byteLength":1488,"target":34963},{"buffer":0,"byteOffset":8736,"byteLength":2916,"target":34962},{"buffer":0,"byteOffset":11652,"byteLength":2916,"target":34962},{"buffer":0,"byteOffset":14568,"byteLength":1632,"target":34963},{"buffer":0,"byteOffset":16200,"byteLength":3264,"target":34962},{"buffer":0,"byteOffset":19464,"byteLength":3264,"target":34962},{"buffer":0,"byteOffset":22728,"byteLength":3072,"target":34963},{"buffer":0,"byteOffset":25800,"byteLength":6120,"target":34962},{"buffer":0,"byteOffset":31920,"byteLength":6120,"target":34962},{"buffer":0,"byteOffset":38040,"byteLength":144,"target":34963},{"buffer":0,"byteOffset":38184,"byteLength":288,"target":34962},{"buffer":0,"byteOffset":38472,"byteLength":288,"target":34962},{"buffer":0,"byteOffset":38760,"byteLength":3168,"target":34963},{"buffer":0,"byteOffset":41928,"byteLength":6360,"target":34962},{"buffer":0,"byteOffset":48288,"byteLength":6360,"target":34962},{"buffer":0,"byteOffset":54648,"byteLength":4464,"target":34963},{"buffer":0,"byteOffset":59112,"byteLength":8952,"target":34962},{"buffer":0,"byteOffset":68064,"byteLength":8952,"target":34962},{"buffer":0,"byteOffset":77016,"byteLength":1296,"target":34963},{"buffer":0,"byteOffset":78312,"byteLength":2640,"target":34962},{"buffer":0,"byteOffset":80952,"byteLength":2640,"target":34962},{"buffer":0,"byteOffset":83592,"byteLength":1872,"target":34963},{"buffer":0,"byteOffset":85464,"byteLength":3768,"target":34962},{"buffer":0,"byteOffset":89232,"byteLength":3768,"target":34962},{"buffer":0,"byteOffset":93000,"byteLength":2112,"target":34963},{"buffer":0,"byteOffset":95112,"byteLength":4248,"target":34962},{"buffer":0,"byteOffset":99360,"byteLength":4248,"target":34962},{"buffer":0,"byteOffset":103608,"byteLength":3600,"target":34963},{"buffer":0,"byteOffset":107208,"byteLength":1824,"target":34962},{"buffer":0,"byteOffset":109032,"byteLength":1824,"target":34962}],"scene":0,"scenes":[{"nodes":[0,1,2,3,4,5,6,7,8,9,10,11,12,13,14,15,16,17],"name":"Project Name"}],"extensionsUsed":["KHR_texture_transform"],"buffers":[{"byteLength":110856,"uri":"ProjectName.bin"}]}